{
  "accessors": [
    {
      "bufferView": 2,
      "componentType": 5126,
      "count": 72,
      "max": [
        11.051295280456543,
        11.051295280456543,
        134.44134521484375
      ],
      "min": [
        -11.051295280456543,
        -11.051295280456543,
        48.6284065246582
      ],
      "type": "VEC3"
    },
    {
      "bufferView": 2,
      "byteOffset": 864,
      "componentType": 5126,
      "count": 72,
      "max": [
        0.9807855486869812,
        0.9807855486869812,
        0.0659901425242424
      ],
      "min": [
        -0.9807854890823364,
        -0.997780442237854,
        0.0
      ],
      "type": "VEC3"
    },
    {
      "bufferView": 1,
      "componentType": 5126,
      "count": 72,
      "max": [
        1.9868535995483398,
        1.2088408470153809
      ],
      "min": [
        1.8561478853225708,
        0.5087466239929199
      ],
      "type": "VEC2"
    },
    {
      "bufferView": 0,
      "componentType": 5125,
      "count": 108,
      "type": "SCALAR"
    },
    {
      "bufferView": 2,
      "byteOffset": 1728,
      "componentType": 5126,
      "count": 390,
      "max": [
        11.482938766479492,
        11.482938766479492,
        134.44134521484375
      ],
      "min": [
        -11.482938766479492,
        -11.482938766479492,
        47.92690658569336
      ],
      "type": "VEC3"
    },
    {
      "bufferView": 2,
      "byteOffset": 6408,
      "componentType": 5126,
      "count": 390,
      "max": [
        1.0,
        1.0,
        1.0
      ],
      "min": [
        -1.0,
        -1.0,
        -0.9992955923080444
      ],
      "type": "VEC3"
    },
    {
      "bufferView": 1,
      "byteOffset": 576,
      "componentType": 5126,
      "count": 390,
      "max": [
        3.841160774230957,
        1.7272394895553589
      ],
      "min": [
        0.9665820598602295,
        -3.515432119369507
      ],
      "type": "VEC2"
    },
    {
      "bufferView": 0,
      "byteOffset": 432,
      "componentType": 5125,
      "count": 738,
      "type": "SCALAR"
    },
    {
      "bufferView": 2,
      "byteOffset": 11088,
      "componentType": 5126,
      "count": 460,
      "max": [
        12.705009460449219,
        12.705009460449219,
        148.6988525390625
      ],
      "min": [
        -12.705009460449219,
        -12.705009460449219,
        47.92690658569336
      ],
      "type": "VEC3"
    },
    {
      "bufferView": 2,
      "byteOffset": 16608,
      "componentType": 5126,
      "count": 460,
      "max": [
        1.0,
        1.0,
        0.9992955923080444
      ],
      "min": [
        -1.0,
        -1.0,
        -1.0
      ],
      "type": "VEC3"
    },
    {
      "bufferView": 1,
      "byteOffset": 3696,
      "componentType": 5126,
      "count": 460,
      "max": [
        2.564513683319092,
        1.6714378595352173
      ],
      "min": [
        -0.15155673027038574,
        -1.249490737915039
      ],
      "type": "VEC2"
    },
    {
      "bufferView": 0,
      "byteOffset": 3384,
      "componentType": 5125,
      "count": 1248,
      "type": "SCALAR"
    },
    {
      "bufferView": 2,
      "byteOffset": 22128,
      "componentType": 5126,
      "count": 4693,
      "max": [
        17.926591873168945,
        17.926591873168945,
        134.44134521484375
      ],
      "min": [
        -17.926591873168945,
        -17.926591873168945,
        95.82569122314453
      ],
      "type": "VEC3"
    },
    {
      "bufferView": 2,
      "byteOffset": 78444,
      "componentType": 5126,
      "count": 4693,
      "max": [
        1.0,
        1.0,
        1.0
      ],
      "min": [
        -1.0,
        -1.0,
        -1.0
      ],
      "type": "VEC3"
    },
    {
      "bufferView": 1,
      "byteOffset": 7376,
      "componentType": 5126,
      "count": 4693,
      "max": [
        1.6182222366333008,
        2.103398323059082
      ],
      "min": [
        -4.431856632232666,
        -4.5513834953308105
      ],
      "type": "VEC2"
    },
    {
      "bufferView": 0,
      "byteOffset": 8376,
      "componentType": 5125,
      "count": 6018,
      "type": "SCALAR"
    },
    {
      "bufferView": 2,
      "byteOffset": 134760,
      "componentType": 5126,
      "count": 589,
      "max": [
        19.788084030151367,
        19.788084030151367,
        125.15718078613281
      ],
      "min": [
        -19.788084030151367,
        -19.83867073059082,
        -6.4279704093933105
      ],
      "type": "VEC3"
    },
    {
      "bufferView": 2,
      "byteOffset": 141828,
      "componentType": 5126,
      "count": 589,
      "max": [
        1.0,
        1.0,
        1.0
      ],
      "min": [
        -1.0,
        -1.0,
        -1.0
      ],
      "type": "VEC3"
    },
    {
      "bufferView": 1,
      "byteOffset": 44920,
      "componentType": 5126,
      "count": 589,
      "max": [
        5.164037227630615,
        1.6486388444900513
      ],
      "min": [
        -2.3894636631011963,
        -4.617204666137695
      ],
      "type": "VEC2"
    },
    {
      "bufferView": 0,
      "byteOffset": 32448,
      "componentType": 5125,
      "count": 2088,
      "type": "SCALAR"
    },
    {
      "bufferView": 2,
      "byteOffset": 148896,
      "componentType": 5126,
      "count": 278,
      "max": [
        4.39154577255249,
        -15.687726020812988,
        13.953060150146484
      ],
      "min": [
        -4.427243709564209,
        -15.912896156311035,
        -0.029610369354486465
      ],
      "type": "VEC3"
    },
    {
      "bufferView": 2,
      "byteOffset": 152232,
      "componentType": 5126,
      "count": 278,
      "max": [
        1.0,
        6.03061971560237e-06,
        1.0
      ],
      "min": [
        -1.0,
        -1.0,
        -1.0
      ],
      "type": "VEC3"
    },
    {
      "bufferView": 1,
      "byteOffset": 49632,
      "componentType": 5126,
      "count": 278,
      "max": [
        1.5041842460632324,
        2.7829322814941406
      ],
      "min": [
        -0.8992390632629395,
        1.9455870389938354
      ],
      "type": "VEC2"
    },
    {
      "bufferView": 0,
      "byteOffset": 40800,
      "componentType": 5125,
      "count": 654,
      "type": "SCALAR"
    },
    {
      "bufferView": 2,
      "byteOffset": 155568,
      "componentType": 5126,
      "count": 170,
      "max": [
        4.130891799926758,
        -15.91289234161377,
        7.403934955596924
      ],
      "min": [
        3.0969181060791016,
        -17.337411880493164,
        6.369961261749268
      ],
      "type": "VEC3"
    },
    {
      "bufferView": 2,
      "byteOffset": 157608,
      "componentType": 5126,
      "count": 170,
      "max": [
        1.0,
        0.7096734046936035,
        1.0
      ],
      "min": [
        -1.0,
        -1.0,
        -1.0
      ],
      "type": "VEC3"
    },
    {
      "bufferView": 1,
      "byteOffset": 51856,
      "componentType": 5126,
      "count": 170,
      "max": [
        0.6346879005432129,
        2.656580924987793
      ],
      "min": [
        0.3674789071083069,
        1.2572462558746338
      ],
      "type": "VEC2"
    },
    {
      "bufferView": 0,
      "byteOffset": 43416,
      "componentType": 5125,
      "count": 366,
      "type": "SCALAR"
    }
  ],
  "asset": {
    "extras": {
      "author": "KarlDufresne (https://sketchfab.com/KarlDufresne)",
      "license": "CC-BY-4.0 (http://creativecommons.org/licenses/by/4.0/)",
      "source": "https://sketchfab.com/3d-models/lighthouse-464af883421f4ac68ede2605f4f1407b",
      "title": "Lighthouse"
    },
    "generator": "Sketchfab-13.74.0",
    "version": "2.0"
  },
  "bufferViews": [
    {
      "buffer": 0,
      "byteLength": 44880,
      "name": "floatBufferViews",
      "target": 34963
    },
    {
      "buffer": 0,
      "byteLength": 53216,
      "byteOffset": 44880,
      "byteStride": 8,
      "name": "floatBufferViews",
      "target": 34962
    },
    {
      "buffer": 0,
      "byteLength": 159648,
      "byteOffset": 98096,
      "byteStride": 12,
      "name": "floatBufferViews",
      "target": 34962
    }
  ],
  "buffers": [
    {
      "byteLength": 257744,
      "uri": "scene.bin"
    }
  ],
  "images": [
    {
      "uri": "textures/Material_329_baseColor.jpeg"
    },
    {
      "uri": "textures/Material_328_baseColor.png"
    },
    {
      "uri": "textures/Material_326_baseColor.png"
    },
    {
      "uri": "textures/Material_327_baseColor.png"
    },
    {
      "uri": "textures/Material_330_baseColor.jpeg"
    },
    {
      "uri": "textures/Material_324_baseColor.png"
    },
    {
      "uri": "textures/Material_325_baseColor.png"
    }
  ],
  "materials": [
    {
      "doubleSided": true,
      "name": "Material_329",
      "pbrMetallicRoughness": {
        "baseColorTexture": {
          "index": 0
        },
        "metallicFactor": 0.0,
        "roughnessFactor": 0.6
      }
    },
    {
      "doubleSided": true,
      "name": "Material_328",
      "pbrMetallicRoughness": {
        "baseColorTexture": {
          "index": 1
        },
        "metallicFactor": 0.0,
        "roughnessFactor": 0.6
      }
    },
    {
      "doubleSided": true,
      "name": "Material_326",
      "pbrMetallicRoughness": {
        "baseColorTexture": {
          "index": 2
        },
        "metallicFactor": 0.0,
        "roughnessFactor": 0.6
      }
    },
    {
      "doubleSided": true,
      "name": "Material_327",
      "pbrMetallicRoughness": {
        "baseColorTexture": {
          "index": 3
        },
        "metallicFactor": 0.0,
        "roughnessFactor": 0.6
      }
    },
    {
      "doubleSided": true,
      "name": "Material_330",
      "pbrMetallicRoughness": {
        "baseColorTexture": {
          "index": 4
        },
        "metallicFactor": 0.0,
        "roughnessFactor": 0.6
      }
    },
    {
      "doubleSided": true,
      "name": "Material_324",
      "pbrMetallicRoughness": {
        "baseColorTexture": {
          "index": 5
        },
        "metallicFactor": 0.0,
        "roughnessFactor": 0.6
      }
    },
    {
      "doubleSided": true,
      "name": "Material_325",
      "pbrMetallicRoughness": {
        "baseColorTexture": {
          "index": 6
        },
        "metallicFactor": 0.0,
        "roughnessFactor": 0.6
      }
    }
  ],
  "meshes": [
    {
      "name": "Lighthouse_Material #329_0",
      "primitives": [
        {
          "attributes": {
            "NORMAL": 1,
            "POSITION": 0,
            "TEXCOORD_0": 2
          },
          "indices": 3,
          "material": 0,
          "mode": 4
        }
      ]
    },
    {
      "name": "Lighthouse_Material #328_0",
      "primitives": [
        {
          "attributes": {
            "NORMAL": 5,
            "POSITION": 4,
            "TEXCOORD_0": 6
          },
          "indices": 7,
          "material": 1,
          "mode": 4
        }
      ]
    },
    {
      "name": "Lighthouse_Material #326_0",
      "primitives": [
        {
          "attributes": {
            "NORMAL": 9,
            "POSITION": 8,
            "TEXCOORD_0": 10
          },
          "indices": 11,
          "material": 2,
          "mode": 4
        }
      ]
    },
    {
      "name": "Lighthouse_Material #327_0",
      "primitives": [
        {
          "attributes": {
            "NORMAL": 13,
            "POSITION": 12,
            "TEXCOORD_0": 14
          },
          "indices": 15,
          "material": 3,
          "mode": 4
        }
      ]
    },
    {
      "name": "Lighthouse_Material #330_0",
      "primitives": [
        {
          "attributes": {
            "NORMAL": 17,
            "POSITION": 16,
            "TEXCOORD_0": 18
          },
          "indices": 19,
          "material": 4,
          "mode": 4
        }
      ]
    },
    {
      "name": "Lighthouse_Material #324_0",
      "primitives": [
        {
          "attributes": {
            "NORMAL": 21,
            "POSITION": 20,
            "TEXCOORD_0": 22
          },
          "indices": 23,
          "material": 5,
          "mode": 4
        }
      ]
    },
    {
      "name": "Lighthouse_Material #325_0",
      "primitives": [
        {
          "attributes": {
            "NORMAL": 25,
            "POSITION": 24,
            "TEXCOORD_0": 26
          },
          "indices": 27,
          "material": 6,
          "mode": 4
        }
      ]
    }
  ],
  "nodes": [
    {
      "children": [
        1
      ],
      "matrix": [
        1.0,
        0.0,
        0.0,
        0.0,
        0.0,
        2.220446049250313e-16,
        -1.0,
        0.0,
        0.0,
        1.0,
        2.220446049250313e-16,
        0.0,
        0.0,
        0.0,
        0.0,
        1.0
      ],
      "name": "Sketchfab_model"
    },
    {
      "children": [
        2
      ],
      "matrix": [
        0.02539999969303608,
        0.0,
        0.0,
        0.0,
        0.0,
        0.0,
        0.02539999969303608,
        0.0,
        0.0,
        -0.02539999969303608,
        0.0,
        0.0,
        0.0,
        0.0,
        0.0,
        1.0
      ],
      "name": "Lighthouse.fbx"
    },
    {
      "children": [
        3
      ],
      "name": "RootNode"
    },
    {
      "children": [
        4
      ],
      "matrix": [
        14.43668270111084,
        0.0,
        0.0,
        0.0,
        0.0,
        3.2055875067961903e-15,
        -14.43668270111084,
        0.0,
        0.0,
        14.43668270111084,
        3.2055875067961903e-15,
        0.0,
        285.67425537109375,
        -92.79856872558594,
        5.3687668866804136e-14,
        1.0
      ],
      "name": "Lighthouse"
    },
    {
      "children": [
        5,
        6,
        7,
        8,
        9,
        10,
        11
      ],
      "matrix": [
        1.0,
        0.0,
        -0.0,
        0.0,
        0.0,
        1.0,
        0.0,
        0.0,
        0.0,
        0.0,
        1.0,
        0.0,
        -19.788084030151367,
        3.718837168547803e-15,
        6.427970886230469,
        1.0
      ],
      "name": "Object_4"
    },
    {
      "mesh": 0,
      "name": "Lighthouse_Material #329_0"
    },
    {
      "mesh": 1,
      "name": "Lighthouse_Material #328_0"
    },
    {
      "mesh": 2,
      "name": "Lighthouse_Material #326_0"
    },
    {
      "mesh": 3,
      "name": "Lighthouse_Material #327_0"
    },
    {
      "mesh": 4,
      "name": "Lighthouse_Material #330_0"
    },
    {
      "mesh": 5,
      "name": "Lighthouse_Material #324_0"
    },
    {
      "mesh": 6,
      "name": "Lighthouse_Material #325_0"
    }
  ],
  "samplers": [
    {
      "magFilter": 9729,
      "minFilter": 9987,
      "wrapS": 10497,
      "wrapT": 10497
    }
  ],
  "scene": 0,
  "scenes": [
    {
      "name": "Sketchfab_Scene",
      "nodes": [
        0
      ]
    }
  ],
  "textures": [
    {
      "sampler": 0,
      "source": 0
    },
    {
      "sampler": 0,
      "source": 1
    },
    {
      "sampler": 0,
      "source": 2
    },
    {
      "sampler": 0,
      "source": 3
    },
    {
      "sampler": 0,
      "source": 4
    },
    {
      "sampler": 0,
      "source": 5
    },
    {
      "sampler": 0,
      "source": 6
    }
  ]
}
