{
  "accessors": [
    {
      "bufferView": 2,
      "componentType": 5126,
      "count": 2341,
      "max": [
        13.505599975585938,
        12.852787017822266,
        21.148151397705078
      ],
      "min": [
        -13.505599975585938,
        -13.86886978149414,
        0.44909000396728516
      ],
      "type": "VEC3"
    },
    {
      "bufferView": 2,
      "byteOffset": 28092,
      "componentType": 5126,
      "count": 2341,
      "max": [
        1.0,
        1.0,
        1.0
      ],
      "min": [
        -1.0,
        -1.0,
        -1.0
      ],
      "type": "VEC3"
    },
    {
      "bufferView": 1,
      "componentType": 5126,
      "count": 2341,
      "max": [
        0.9912109971046448,
        -0.0075610000640153885
      ],
      "min": [
        0.006912000011652708,
        -0.9916989803314209
      ],
      "type": "VEC2"
    },
    {
      "bufferView": 0,
      "componentType": 5125,
      "count": 8568,
      "type": "SCALAR"
    },
    {
      "bufferView": 2,
      "byteOffset": 56184,
      "componentType": 5126,
      "count": 3,
      "max": [
        -0.270671010017395,
        4.444534778594971,
        5.504723072052002
      ],
      "min": [
        -0.2706800103187561,
        4.44451904296875,
        5.504723072052002
      ],
      "type": "VEC3"
    },
    {
      "bufferView": 2,
      "byteOffset": 56220,
      "componentType": 5126,
      "count": 3,
      "max": [
        0.0,
        0.0,
        1.0
      ],
      "min": [
        0.0,
        0.0,
        1.0
      ],
      "type": "VEC3"
    },
    {
      "bufferView": 1,
      "byteOffset": 18728,
      "componentType": 5126,
      "count": 3,
      "max": [
        0.2512210011482239,
        1.2000000424450263e-05
      ],
      "min": [
        0.07623299956321716,
        -0.3269039988517761
      ],
      "type": "VEC2"
    },
    {
      "bufferView": 0,
      "byteOffset": 34272,
      "componentType": 5125,
      "count": 3,
      "type": "SCALAR"
    },
    {
      "bufferView": 2,
      "byteOffset": 56256,
      "componentType": 5126,
      "count": 1164,
      "max": [
        11.889717102050781,
        8.050089836120605,
        5.805235862731934
      ],
      "min": [
        -11.889717102050781,
        -8.050000190734863,
        -0.2991659939289093
      ],
      "type": "VEC3"
    },
    {
      "bufferView": 2,
      "byteOffset": 70224,
      "componentType": 5126,
      "count": 1164,
      "max": [
        1.0,
        1.0,
        1.0
      ],
      "min": [
        -1.0,
        -1.0,
        -1.0
      ],
      "type": "VEC3"
    },
    {
      "bufferView": 1,
      "byteOffset": 18752,
      "componentType": 5126,
      "count": 1164,
      "max": [
        0.9936519861221313,
        2.8000000384054147e-05
      ],
      "min": [
        0.008324000053107738,
        -1.0
      ],
      "type": "VEC2"
    },
    {
      "bufferView": 0,
      "byteOffset": 34284,
      "componentType": 5125,
      "count": 2304,
      "type": "SCALAR"
    },
    {
      "bufferView": 3,
      "componentType": 5126,
      "count": 1,
      "max": [
        0.0
      ],
      "min": [
        0.0
      ],
      "type": "SCALAR"
    },
    {
      "bufferView": 4,
      "componentType": 5126,
      "count": 1,
      "max": [
        0.0,
        0.0,
        0.0,
        1.0
      ],
      "min": [
        0.0,
        0.0,
        0.0,
        1.0
      ],
      "type": "VEC4"
    },
    {
      "bufferView": 3,
      "byteOffset": 4,
      "componentType": 5126,
      "count": 1,
      "max": [
        0.0
      ],
      "min": [
        0.0
      ],
      "type": "SCALAR"
    },
    {
      "bufferView": 4,
      "byteOffset": 16,
      "componentType": 5126,
      "count": 1,
      "max": [
        0.0,
        0.0,
        0.0,
        1.0
      ],
      "min": [
        0.0,
        0.0,
        0.0,
        1.0
      ],
      "type": "VEC4"
    },
    {
      "bufferView": 3,
      "byteOffset": 8,
      "componentType": 5126,
      "count": 1,
      "max": [
        0.0
      ],
      "min": [
        0.0
      ],
      "type": "SCALAR"
    },
    {
      "bufferView": 4,
      "byteOffset": 32,
      "componentType": 5126,
      "count": 1,
      "max": [
        0.0,
        0.0,
        0.0,
        1.0
      ],
      "min": [
        0.0,
        0.0,
        0.0,
        1.0
      ],
      "type": "VEC4"
    }
  ],
  "animations": [
    {
      "channels": [
        {
          "sampler": 0,
          "target": {
            "node": 4,
            "path": "rotation"
          }
        },
        {
          "sampler": 1,
          "target": {
            "node": 6,
            "path": "rotation"
          }
        },
        {
          "sampler": 2,
          "target": {
            "node": 8,
            "path": "rotation"
          }
        }
      ],
      "name": "Take 001",
      "samplers": [
        {
          "input": 12,
          "interpolation": "LINEAR",
          "output": 13
        },
        {
          "input": 14,
          "interpolation": "LINEAR",
          "output": 15
        },
        {
          "input": 16,
          "interpolation": "LINEAR",
          "output": 17
        }
      ]
    }
  ],
  "asset": {
    "extras": {
      "author": "luse (https://sketchfab.com/luse)",
      "license": "CC-BY-4.0 (http://creativecommons.org/licenses/by/4.0/)",
      "source": "https://sketchfab.com/3d-models/shear-heart-attack-174d261a669c4db98a74895932a208ae",
      "title": "Shear Heart Attack"
    },
    "generator": "Sketchfab-12.65.0",
    "version": "2.0"
  },
  "bufferViews": [
    {
      "buffer": 0,
      "byteLength": 43500,
      "name": "floatBufferViews",
      "target": 34963
    },
    {
      "buffer": 0,
      "byteLength": 28064,
      "byteOffset": 43500,
      "byteStride": 8,
      "name": "floatBufferViews",
      "target": 34962
    },
    {
      "buffer": 0,
      "byteLength": 84192,
      "byteOffset": 71564,
      "byteStride": 12,
      "name": "floatBufferViews",
      "target": 34962
    },
    {
      "buffer": 0,
      "byteLength": 12,
      "byteOffset": 155756,
      "name": "floatBufferViews"
    },
    {
      "buffer": 0,
      "byteLength": 48,
      "byteOffset": 155768,
      "byteStride": 16,
      "name": "floatBufferViews"
    }
  ],
  "buffers": [
    {
      "byteLength": 155816,
      "uri": "scene.bin"
    }
  ],
  "images": [
    {
      "uri": "textures/Material_25_baseColor.jpeg"
    },
    {
      "uri": "textures/Material_30_baseColor.jpeg"
    }
  ],
  "materials": [
    {
      "doubleSided": true,
      "name": "Material_25",
      "pbrMetallicRoughness": {
        "baseColorTexture": {
          "index": 0
        },
        "roughnessFactor": 0.2578125
      }
    },
    {
      "doubleSided": true,
      "name": "EDownloadsSheer_heart_attack.ntxr000.dds",
      "pbrMetallicRoughness": {
        "baseColorFactor": [
          0.8,
          0.8,
          0.8,
          1.0
        ],
        "metallicFactor": 0.0,
        "roughnessFactor": 0.6
      }
    },
    {
      "doubleSided": true,
      "name": "Material_30",
      "pbrMetallicRoughness": {
        "baseColorTexture": {
          "index": 1
        },
        "roughnessFactor": 0.0
      }
    }
  ],
  "meshes": [
    {
      "name": "4sha01t0 body_Material #25_0",
      "primitives": [
        {
          "attributes": {
            "NORMAL": 1,
            "POSITION": 0,
            "TEXCOORD_0": 2
          },
          "indices": 3,
          "material": 0,
          "mode": 4
        }
      ]
    },
    {
      "name": "4sha01t0 caterpillar 01_E:\\Downloads\\Sheer heart attack\\.\\ntxr000.dds_0",
      "primitives": [
        {
          "attributes": {
            "NORMAL": 5,
            "POSITION": 4,
            "TEXCOORD_0": 6
          },
          "indices": 7,
          "material": 1,
          "mode": 4
        }
      ]
    },
    {
      "name": "4sha01t0 caterpillar 02_Material #30_0",
      "primitives": [
        {
          "attributes": {
            "NORMAL": 9,
            "POSITION": 8,
            "TEXCOORD_0": 10
          },
          "indices": 11,
          "material": 2,
          "mode": 4
        }
      ]
    }
  ],
  "nodes": [
    {
      "children": [
        1
      ],
      "matrix": [
        116.43163299560547,
        0.0,
        0.0,
        0.0,
        0.0,
        -116.43163299560547,
        -5.170603189857091e-14,
        0.0,
        0.0,
        5.170603189857091e-14,
        -116.43163299560547,
        0.0,
        0.0,
        -4.304165840148927,
        3.9041073322296134,
        1.0
      ],
      "name": "Sketchfab_model"
    },
    {
      "children": [
        2
      ],
      "matrix": [
        1.0,
        0.0,
        0.0,
        0.0,
        0.0,
        0.0,
        1.0,
        0.0,
        0.0,
        -1.0,
        0.0,
        0.0,
        0.0,
        0.0,
        0.0,
        1.0
      ],
      "name": "Shear Heart Attack.FBX"
    },
    {
      "children": [
        3
      ],
      "name": "Object_2"
    },
    {
      "children": [
        4,
        6,
        8
      ],
      "name": "RootNode"
    },
    {
      "children": [
        5
      ],
      "name": "4sha01t0 body",
      "rotation": [
        2.1855694143368964e-08,
        0.0,
        0.0,
        1.0
      ],
      "scale": [
        0.3937007784843445,
        0.3937007784843445,
        0.3937007784843445
      ]
    },
    {
      "mesh": 0,
      "name": "4sha01t0 body_Material #25_0"
    },
    {
      "children": [
        7
      ],
      "name": "4sha01t0 caterpillar 01",
      "rotation": [
        2.1855694143368964e-08,
        0.0,
        0.0,
        1.0
      ],
      "scale": [
        0.3937007784843445,
        0.3937007784843445,
        0.3937007784843445
      ]
    },
    {
      "mesh": 1,
      "name": "4sha01t0 caterpillar 01_E:\\Downloads\\Sheer heart attack\\.\\ntxr000.dds_0"
    },
    {
      "children": [
        9
      ],
      "name": "4sha01t0 caterpillar 02",
      "rotation": [
        2.1855694143368964e-08,
        0.0,
        0.0,
        1.0
      ],
      "scale": [
        0.3937007784843445,
        0.3937007784843445,
        0.3937007784843445
      ]
    },
    {
      "mesh": 2,
      "name": "4sha01t0 caterpillar 02_Material #30_0"
    }
  ],
  "samplers": [
    {
      "magFilter": 9729,
      "minFilter": 9987,
      "wrapS": 10497,
      "wrapT": 10497
    }
  ],
  "scene": 0,
  "scenes": [
    {
      "name": "Sketchfab_Scene",
      "nodes": [
        0
      ]
    }
  ],
  "textures": [
    {
      "sampler": 0,
      "source": 0
    },
    {
      "sampler": 0,
      "source": 1
    }
  ]
}
